{"title":"Housefull 3 (2016) micro x265 10 Bits ~400MB DvDrip AAC 2.0 DDR","uid":15600362,"size":424299806,"categoryP":"video","categoryS":"movies","magnet":"?xt=urn:btih:02a1d30081152d9673f0c04c20f0c7f2290ae991&amp;dn=Housefull+3+%282016%29+micro+x265+10+Bits+%7E400MB+DvDrip+AAC+2.0+DDR&amp;tr=udp%3A%2F%2Ftracker.leechers-paradise.org%3A6969&amp;tr=udp%3A%2F%2Fzer0day.ch%3A1337&amp;tr=udp%3A%2F%2Fopen.demonii.com%3A1337&amp;tr=udp%3A%2F%2Ftracker.coppersurfer.tk%3A6969&amp;tr=udp%3A%2F%2Fexodus.desync.com%3A6969","seeders":4,"leechers":3,"uploader":"SaM","files":2,"time":1471629643,"description":"** Housefull 3 **\r\n\r\n** 2016**\r\n\r\n** µicro / DvDRip / HEVC 10 Bits / AAC 2.0 **\r\n\r\n** English Subtitle(s) **\r\n\r\n\r\n\r\n[ SCREENS ]\r\n \nhttp://extraimago.com/image/w1Tl \nhttp://extraimago.com/image/w1Ti \nhttp://extraimago.com/image/w1Tm \nhttp://extraimago.com/image/w1TR \nhttp://extraimago.com/image/w1TQ \nhttp://extraimago.com/image/w1TL \nhttp://extraimago.com/image/w1Ty \nhttp://extraimago.com/image/w1Tq \nhttp://extraimago.com/image/w1TS \nhttp://extraimago.com/image/w1TO \nhttp://extraimago.com/image/w1TE \nhttp://extraimago.com/image/w1T1 \nhttp://extraimago.com/image/w1Tc \nhttp://extraimago.com/image/w1T7 \nhttp://extraimago.com/image/w1Ts \nhttp://extraimago.com/image/w1Tn \nhttp://extraimago.com/image/w1Tj\r\n\r\n[ Info ]\r\nSource : DVD9 @ ICTV\r\nFormat : Matroska\r\nFile size : 402 MiB\r\nDuration : 2h 14mn\r\nOverall bit rate : 419 Kbps\r\n\r\nVideo\r\nFormat : HEVC\r\nFormat/Info : High Efficiency Video Coding\r\nFormat profile : Main   @Main\r\nCodec ID : V_MPEGH/ISO/HEVC\r\nDuration : 2h 14mn\r\nBit rate : 351 Kbps\r\nWidth : 720 pixels\r\nHeight : 296 pixels\r\nDisplay aspect ratio : 2.40:1\r\nFrame rate mode : Constant\r\nFrame rate : 23.976 (24000/1001) fps\r\ncolor space : YUV\r\nChroma subsampling : 4:2:0\r\nBit depth : 10 bits\r\nBits/(Pixel*Frame) : 0.069\r\nStream size : 338 MiB (84%)\r\n\r\nAudio\r\nFormat : AAC\r\nFormat/Info : Advanced Audio Codec\r\nFormat profile : LC\r\nCodec ID : A_AAC\r\nDuration : 2h 14mn\r\nBit rate : 63.6 Kbps\r\nChannel(s) : 6 channels\r\nChannel positions : Front: L C R, Side: L R, LFE\r\nSampling rate : 48.0 KHz\r\nFrame rate : 46.875 fps (1024 spf)\r\nCompression mode : Lossy\r\nDelay relative to video : 9ms\r\nStream size : 61.1 MiB (15%)\r\nDefault : Yes\r\nForced : No\r\n\r\nText\r\nID : 3\r\nFormat : VobSub\r\nMuxing mode : zlib\r\nCodec ID : S_VOBSUB\r\nCodec ID/Info : Picture based subtitle format used on DVDs\r\nDuration : 2h 10mn\r\nBit rate : 1 483 bps\r\nCount of elements : 2047\r\nStream size : 1.38 MiB (0%)\r\nLanguage : English\r\nDefault : Yes\r\nForced : No\r\n\r\n\r\nChapters = YES","torrent":{"xt":"urn:btih:02a1d30081152d9673f0c04c20f0c7f2290ae991","amp;dn":"Housefull+3+%282016%29+micro+x265+10+Bits+%7E400MB+DvDrip+AAC+2.0+DDR","amp;tr":["udp%3A%2F%2Ftracker.leechers-paradise.org%3A6969","udp%3A%2F%2Fzer0day.ch%3A1337","udp%3A%2F%2Fopen.demonii.com%3A1337","udp%3A%2F%2Ftracker.coppersurfer.tk%3A6969","udp%3A%2F%2Fexodus.desync.com%3A6969"],"infoHash":"02a1d30081152d9673f0c04c20f0c7f2290ae991","infoHashBuffer":{"type":"Buffer","data":[2,161,211,0,129,21,45,150,115,240,192,76,32,240,199,242,41,10,233,145]},"announce":[],"urlList":[]}}